<svg width="150" height="150" viewBox="0 0 150 150" fill="none" xmlns="http://www.w3.org/2000/svg">
<path d="M91.2829 54.4408H91.3355M78.125 122.862H43.9145C39.7268 122.862 35.7107 121.198 32.7496 118.237C29.7885 115.276 28.125 111.26 28.125 107.072V43.9145C28.125 39.7268 29.7885 35.7107 32.7496 32.7496C35.7107 29.7885 39.7268 28.125 43.9145 28.125H107.072C111.26 28.125 115.276 29.7885 118.237 32.7496C121.198 35.7107 122.862 39.7268 122.862 43.9145V78.125M28.125 96.5461L54.4408 70.2303C59.325 65.5303 65.3461 65.5303 70.2303 70.2303L91.2829 91.2829M86.0197 86.0197L91.2829 80.7565C94.8092 77.3671 98.9145 76.4197 102.767 77.9144M96.5461 112.335H128.125M112.336 96.546V128.125" stroke="black" stroke-width="1.68421" stroke-linecap="round" stroke-linejoin="round"/>
<rect x="0.5" y="0.5" width="149" height="149" rx="74.5" stroke="black"/>
</svg>
