<svg width="42" height="42" viewBox="0 0 42 42" fill="none" xmlns="http://www.w3.org/2000/svg">
<g clip-path="url(#clip0_511_1062)">
<path d="M9.3058 17.0125H6.66113C5.85498 17.0125 5.2002 17.6673 5.2002 18.4734V25.8563V25.8564C5.20012 26.5565 5.3499 27.2486 5.63947 27.8861C5.92904 28.5235 6.3517 29.0916 6.87904 29.5522C7.40638 30.0128 8.02619 30.3551 8.69682 30.5563C8.95964 30.6351 9.22787 30.6916 9.49866 30.7254C9.23757 29.7827 9.10502 28.8068 9.10645 27.8241M9.3058 17.0125L9.10645 27.8235C9.10645 27.8237 9.10645 27.8239 9.10645 27.8241M9.3058 17.0125C9.17603 17.4772 9.10645 17.9671 9.10645 18.4734V27.8241M9.3058 17.0125L9.10645 27.8241M34.7002 25.8563V25.8564C34.7003 26.5565 34.5505 27.2486 34.2609 27.8861C33.9713 28.5235 33.5487 29.0916 33.0214 29.5522C32.494 30.0128 31.8742 30.3551 31.2036 30.5563C30.9408 30.6351 30.6725 30.6916 30.4018 30.7254C30.6575 29.8011 30.7939 28.8276 30.7939 27.825V18.4734C30.7939 17.9675 30.7249 17.4776 30.5953 17.0125H33.2393C34.0454 17.0125 34.7002 17.6673 34.7002 18.4734V25.8563ZM23.8721 9.12189C23.8721 10.162 23.4589 11.1596 22.7234 11.8951C21.9879 12.6306 20.9903 13.0438 19.9502 13.0438C18.91 13.0438 17.9125 12.6306 17.177 11.8951C16.4415 11.1596 16.0283 10.162 16.0283 9.12189C16.0283 8.08174 16.4415 7.0842 17.177 6.3487C17.9125 5.61321 18.91 5.20001 19.9502 5.20001C20.9903 5.20001 21.9879 5.61321 22.7234 6.3487C23.4589 7.0842 23.8721 8.08174 23.8721 9.12189ZM33.7158 10.1063C33.7158 10.8853 33.4063 11.6325 32.8554 12.1834C32.3046 12.7343 31.5574 13.0438 30.7783 13.0438C29.9992 13.0438 29.2521 12.7343 28.7012 12.1834C28.1503 11.6325 27.8408 10.8853 27.8408 10.1063C27.8408 9.32719 28.1503 8.58002 28.7012 8.02914C29.2521 7.47825 29.9992 7.16876 30.7783 7.16876C31.5574 7.16876 32.3046 7.47825 32.8554 8.02914C33.4063 8.58002 33.7158 9.32719 33.7158 10.1063ZM11.1992 12.1834C10.6483 12.7343 9.90114 13.0438 9.12207 13.0438C8.343 13.0438 7.59583 12.7343 7.04494 12.1834C6.49406 11.6325 6.18457 10.8853 6.18457 10.1063C6.18457 9.32719 6.49406 8.58002 7.04494 8.02914C7.59583 7.47825 8.343 7.16876 9.12207 7.16876C9.90114 7.16876 10.6483 7.47825 11.1992 8.02914C11.7501 8.58002 12.0596 9.32719 12.0596 10.1063C12.0596 10.8853 11.7501 11.6325 11.1992 12.1834ZM13.0752 18.4734C13.0752 17.6673 13.73 17.0125 14.5361 17.0125H25.3643C26.1704 17.0125 26.8252 17.6673 26.8252 18.4734V27.825C26.8252 29.6484 26.1009 31.3971 24.8116 32.6864C23.5222 33.9757 21.7736 34.7 19.9502 34.7C18.1268 34.7 16.3781 33.9757 15.0888 32.6864C13.7995 31.3971 13.0752 29.6484 13.0752 27.825V18.4734Z" stroke="black" stroke-width="2"/>
</g>
<defs>
<clipPath id="clip0_511_1062">
<rect width="42" height="42" fill="white"/>
</clipPath>
</defs>
</svg>
