<svg width="42" height="42" viewBox="0 0 42 42" fill="none" xmlns="http://www.w3.org/2000/svg">
<g clip-path="url(#clip0_511_1055)">
<path d="M33.25 36.75H12.25C10.3935 36.75 8.61301 36.0125 7.30025 34.6997C5.9875 33.387 5.25 31.6065 5.25 29.75V8.75C5.25 7.82174 5.61875 6.9315 6.27513 6.27513C6.9315 5.61875 7.82174 5.25 8.75 5.25H26.25C27.1783 5.25 28.0685 5.61875 28.7249 6.27513C29.3813 6.9315 29.75 7.82174 29.75 8.75V31.5C29.75 34.3997 30.3503 36.75 33.25 36.75Z" stroke="black" stroke-width="2" stroke-linecap="round" stroke-linejoin="round"/>
<path d="M36.75 17.5C36.75 16.5717 36.3813 15.6815 35.7249 15.0251C35.0685 14.3687 34.1783 14 33.25 14H29.75V32.375C29.75 34.79 30.835 36.75 33.25 36.75C35.665 36.75 36.75 34.79 36.75 32.375V17.5Z" stroke="black" stroke-width="2" stroke-linecap="round" stroke-linejoin="round"/>
<path d="M22.75 19.25H12.25M22.75 12.25H12.25M17.5 26.25H12.25" stroke="black" stroke-width="2" stroke-linecap="round"/>
</g>
<defs>
<clipPath id="clip0_511_1055">
<rect width="42" height="42" fill="white"/>
</clipPath>
</defs>
</svg>
