<svg width="46" height="46" viewBox="0 0 46 46" fill="none" xmlns="http://www.w3.org/2000/svg">
<path d="M44.0832 36.4167C44.0832 37.4333 43.6793 38.4084 42.9604 39.1272C42.2415 39.8461 41.2665 40.25 40.2498 40.25H5.74984C4.73317 40.25 3.75815 39.8461 3.03926 39.1272C2.32037 38.4084 1.9165 37.4333 1.9165 36.4167V15.3333C1.9165 14.3167 2.32037 13.3416 3.03926 12.6228C3.75815 11.9039 4.73317 11.5 5.74984 11.5H13.4165L17.2498 5.75H28.7498L32.5832 11.5H40.2498C41.2665 11.5 42.2415 11.9039 42.9604 12.6228C43.6793 13.3416 44.0832 14.3167 44.0832 15.3333V36.4167Z" stroke="white" stroke-width="2" stroke-linecap="round" stroke-linejoin="round"/>
<path d="M23.0002 32.5833C27.2343 32.5833 30.6668 29.1508 30.6668 24.9167C30.6668 20.6825 27.2343 17.25 23.0002 17.25C18.766 17.25 15.3335 20.6825 15.3335 24.9167C15.3335 29.1508 18.766 32.5833 23.0002 32.5833Z" stroke="white" stroke-width="2" stroke-linecap="round" stroke-linejoin="round"/>
</svg>
