<svg width="42" height="42" viewBox="0 0 42 42" fill="none" xmlns="http://www.w3.org/2000/svg">
<g clip-path="url(#clip0_511_1041)">
<path d="M19.6156 32.0769H22.3848M29.3079 15.4615V9.92301M16.8463 15.4615V5.76917H8.53865V15.4615M8.53865 15.4615L33.4616 15.4611C34.196 15.4611 34.9004 15.7528 35.4197 16.2722C35.9391 16.7915 36.2308 17.4959 36.2308 18.2303L36.2308 25.1539M8.53865 15.4615C7.80421 15.4615 7.09971 15.7528 6.58038 16.2722C6.06104 16.7915 5.76929 17.4959 5.76929 18.2303L5.76923 25.1539M5.76923 25.1539H36.2308M5.76923 25.1539C4.23983 25.1539 3 26.3937 3 27.9231V36.2308C3 37.7602 4.23983 39.0001 5.76923 39.0001H36.2308C37.7602 39.0001 39 37.7602 39 36.2308V27.9231C39 26.3937 37.7602 25.1539 36.2308 25.1539M34.8463 6.46148C34.8463 6.91605 34.7568 7.36618 34.5828 7.78615C34.4089 8.20612 34.1539 8.58772 33.8325 8.90915C33.511 9.23059 33.1295 9.48556 32.7095 9.65952C32.2895 9.83348 31.8394 9.92301 31.3848 9.92301H27.231C26.3129 9.92301 25.4324 9.55832 24.7833 8.90915C24.1341 8.25999 23.7694 7.37953 23.7694 6.46148C23.7694 5.54342 24.1341 4.66296 24.7833 4.0138C25.4324 3.36464 26.3129 2.99994 27.231 2.99994H31.3848C31.8394 2.99994 32.2895 3.08947 32.7095 3.26343C33.1295 3.43739 33.511 3.69237 33.8325 4.0138C34.1539 4.33523 34.4089 4.71683 34.5828 5.1368C34.7568 5.55678 34.8463 6.0069 34.8463 6.46148Z" stroke="black" stroke-width="2" stroke-linecap="round" stroke-linejoin="round"/>
</g>
<defs>
<clipPath id="clip0_511_1041">
<rect width="42" height="42" fill="white"/>
</clipPath>
</defs>
</svg>
