<svg width="31" height="22" viewBox="0 0 31 22" fill="none" xmlns="http://www.w3.org/2000/svg">
<path d="M29.3543 9.41663C29.3543 8.28538 16.1506 3.22496 12.6812 1.91454C12.434 1.82145 12.1542 1.78178 11.8759 1.80037C11.5977 1.81896 11.333 1.89501 11.1142 2.01923L1.646 7.33329" stroke="#676767" stroke-width="2" stroke-linecap="round" stroke-linejoin="round"/>
<path d="M1.646 8.1937C1.646 7.50152 2.57131 6.99683 3.50902 7.17079C8.18079 8.03641 20.5022 10.1109 27.2842 9.29058C28.3014 9.16818 29.3543 9.69631 29.3543 10.4328V18.8447C29.3545 19.1116 29.2112 19.3683 28.9541 19.562C28.697 19.7556 28.3457 19.8714 27.9726 19.8854L3.18089 20.8177C2.9831 20.8251 2.78526 20.8037 2.59944 20.7547C2.41363 20.7057 2.24372 20.6302 2.1001 20.5328C1.95648 20.4354 1.84214 20.3181 1.76407 20.188C1.686 20.058 1.64582 19.918 1.646 19.7765V8.19318V8.1937Z" stroke="#676767" stroke-width="2" stroke-linecap="round" stroke-linejoin="round"/>
<path d="M6.75033 13.0625C7.55574 13.0625 8.20866 12.5961 8.20866 12.0208C8.20866 11.4455 7.55574 10.9791 6.75033 10.9791C5.94491 10.9791 5.29199 11.4455 5.29199 12.0208C5.29199 12.5961 5.94491 13.0625 6.75033 13.0625Z" fill="#676767"/>
<path d="M16.2293 14.1041C17.0347 14.1041 17.6877 13.6377 17.6877 13.0624C17.6877 12.4871 17.0347 12.0208 16.2293 12.0208C15.4239 12.0208 14.771 12.4871 14.771 13.0624C14.771 13.6377 15.4239 14.1041 16.2293 14.1041Z" fill="#676767"/>
<path d="M22.7918 16.7083C23.5972 16.7083 24.2502 16.242 24.2502 15.6667C24.2502 15.0914 23.5972 14.625 22.7918 14.625C21.9864 14.625 21.3335 15.0914 21.3335 15.6667C21.3335 16.242 21.9864 16.7083 22.7918 16.7083Z" fill="#676767"/>
<path d="M11.1253 16.7083C11.9307 16.7083 12.5837 16.242 12.5837 15.6667C12.5837 15.0914 11.9307 14.625 11.1253 14.625C10.3199 14.625 9.66699 15.0914 9.66699 15.6667C9.66699 16.242 10.3199 16.7083 11.1253 16.7083Z" fill="#676767" stroke="#676767" stroke-width="2"/>
</svg>
