<svg width="20" height="20" viewBox="0 0 20 20" fill="none" xmlns="http://www.w3.org/2000/svg">
<path d="M2.86182 17.125H4.26182L12.8868 8.5L11.4868 7.1L2.86182 15.725V17.125ZM17.1618 7.05L12.9118 2.85L14.3118 1.45C14.6952 1.06667 15.1662 0.875 15.7248 0.875C16.2835 0.875 16.7541 1.06667 17.1368 1.45L18.5368 2.85C18.9201 3.23333 19.1201 3.696 19.1368 4.238C19.1535 4.78 18.9701 5.24233 18.5868 5.625L17.1618 7.05ZM15.7118 8.525L5.11182 19.125H0.861816V14.875L11.4618 4.275L15.7118 8.525ZM12.1868 7.8L11.4868 7.1L12.8868 8.5L12.1868 7.8Z" fill="#F96400"/>
</svg>
