<svg width="42" height="42" viewBox="0 0 42 42" fill="none" xmlns="http://www.w3.org/2000/svg">
<g clip-path="url(#clip0_511_1045)">
<path fill-rule="evenodd" clip-rule="evenodd" d="M13.2735 8.03533C13.9652 6.52921 15.0587 5.25627 16.4266 4.36479C17.7946 3.47331 19.3806 3 21 3C22.6194 3 24.2054 3.47331 25.5734 4.36479C26.9413 5.25627 28.0348 6.52921 28.7265 8.03533C30.8404 7.93894 32.9237 8.58225 34.6365 9.86029C36.3493 11.1383 37.5905 12.9757 38.1576 15.0726C38.7247 17.1695 38.5843 19.4022 37.7592 21.4064C36.9341 23.4107 35.473 25.0682 33.6144 26.1085V31.1345C33.6144 32.6396 33.6144 33.8936 33.4841 34.8881C33.3474 35.9395 33.0447 36.8888 32.3025 37.6506C31.5619 38.414 30.639 38.7254 29.6168 38.8661C28.65 39 27.4293 39 25.9676 39H16.0324C14.5707 39 13.35 39 12.3832 38.8661C11.361 38.7254 10.4381 38.414 9.69753 37.6506C8.95532 36.8888 8.65257 35.9395 8.51585 34.8881C8.38564 33.8936 8.38564 32.6396 8.38564 31.1345V26.1102C6.527 25.0699 5.06595 23.4124 4.24084 21.4081C3.41574 19.4039 3.27528 17.1712 3.84239 15.0743C4.40949 12.9774 5.65069 11.14 7.36348 9.86197C9.07627 8.58392 11.1596 7.93894 13.2735 8.03533ZM12.5411 10.5467C10.9808 10.6208 9.4908 11.236 8.31363 12.292C7.13647 13.348 6.34141 14.7827 6.05783 16.3627C5.77425 17.9426 6.01885 19.5748 6.75183 20.9935C7.4848 22.4123 8.663 23.5341 10.0947 24.1765C10.3123 24.2742 10.4975 24.435 10.6276 24.6393C10.7577 24.8436 10.827 25.0824 10.8271 25.3267V29.7901H31.1729V25.3267C31.173 25.0824 31.2423 24.8436 31.3724 24.6393C31.5025 24.435 31.6877 24.2742 31.9053 24.1765C33.3374 23.534 34.5159 22.412 35.2491 20.9929C35.9824 19.5739 36.2271 17.9413 35.9435 16.361C35.6599 14.7807 34.8647 13.3456 33.6873 12.2892C32.5099 11.2329 31.0196 10.6176 29.4589 10.5433C29.5159 10.9518 29.5452 11.3687 29.5452 11.7923V12.6311C29.5452 12.9641 29.4166 13.2835 29.1877 13.5189C28.9587 13.7544 28.6482 13.8867 28.3245 13.8867C28.0007 13.8867 27.6902 13.7544 27.4613 13.5189C27.2323 13.2835 27.1037 12.9641 27.1037 12.6311V11.794C27.1046 10.9692 26.9473 10.1524 26.6408 9.3903C26.3344 8.62818 25.8848 7.93571 25.3179 7.35254C24.7509 6.76937 24.0777 6.30695 23.3368 5.99174C22.5959 5.67654 21.8018 5.51475 21 5.51563C19.3815 5.51652 17.8295 6.17827 16.685 7.35549C15.5405 8.53271 14.8971 10.1291 14.8963 11.794V12.6311C14.8963 12.9641 14.7677 13.2835 14.5387 13.5189C14.3098 13.7544 13.9993 13.8867 13.6755 13.8867C13.3518 13.8867 13.0413 13.7544 12.8123 13.5189C12.5834 13.2835 12.4548 12.9641 12.4548 12.6311V11.794C12.4548 11.3704 12.4841 10.9535 12.5411 10.5467ZM31.1696 32.3031H10.8304C10.8369 33.2574 10.8597 33.9773 10.9362 34.5549C11.0371 35.3268 11.2113 35.6583 11.4245 35.8759C11.6361 36.0936 11.9567 36.2727 12.7071 36.3782C13.4932 36.4853 14.548 36.4887 16.117 36.4887H25.883C27.452 36.4887 28.5068 36.4853 29.2929 36.3765C30.0433 36.2727 30.3656 36.0936 30.5771 35.8742C30.7887 35.6566 30.9629 35.3268 31.0654 34.5549C31.1403 33.9757 31.1631 33.2558 31.1696 32.3031Z" fill="black"/>
</g>
<defs>
<clipPath id="clip0_511_1045">
<rect width="42" height="42" fill="white"/>
</clipPath>
</defs>
</svg>
