<svg width="25" height="24" viewBox="0 0 25 24" fill="none" xmlns="http://www.w3.org/2000/svg">
<path d="M21.875 10C21.875 17 12.5 23 12.5 23C12.5 23 3.125 17 3.125 10C3.125 7.61305 4.11272 5.32387 5.87087 3.63604C7.62903 1.94821 10.0136 1 12.5 1C14.9864 1 17.371 1.94821 19.1291 3.63604C20.8873 5.32387 21.875 7.61305 21.875 10Z" stroke="black" stroke-opacity="0.65" stroke-width="2" stroke-linecap="round" stroke-linejoin="round"/>
<path d="M12.5 13C14.2259 13 15.625 11.6569 15.625 10C15.625 8.34315 14.2259 7 12.5 7C10.7741 7 9.375 8.34315 9.375 10C9.375 11.6569 10.7741 13 12.5 13Z" stroke="black" stroke-opacity="0.65" stroke-width="2" stroke-linecap="round" stroke-linejoin="round"/>
</svg>
