<svg width="29" height="23" viewBox="0 0 29 23" fill="none" xmlns="http://www.w3.org/2000/svg">
<path d="M12.435 7.64273C13.6366 4.72242 18.5038 3.51356 21.982 5.27189C24.9905 6.79169 25.4951 9.83752 23.067 11.8172L20.7847 13.6787C16.9791 16.782 12.1734 19.1773 6.78248 20.6578L4.18811 21.3709C3.80784 21.475 3.38796 21.4785 3.0044 21.3807C2.62083 21.283 2.29891 21.0904 2.09683 20.8378C1.89476 20.5853 1.82588 20.2894 1.90265 20.0037C1.97942 19.718 2.19677 19.4614 2.5154 19.2802L4.54248 18.1302C7.57935 16.407 9.79632 14.0554 10.8899 11.3974L12.435 7.64273Z" stroke="#676767" stroke-width="2"/>
<path d="M18.7598 4.56467C18.9349 4.18504 19.2316 3.83985 19.6263 3.55656C20.0211 3.27327 20.5029 3.05969 21.0336 2.93284C21.5642 2.80598 22.129 2.76934 22.6829 2.82583C23.2369 2.88232 23.7647 3.03039 24.2245 3.25825C24.6842 3.4861 25.0631 3.78746 25.3311 4.13834C25.5991 4.48922 25.7487 4.87993 25.7681 5.27938C25.7875 5.67884 25.676 6.07601 25.4427 6.43929C25.2093 6.80257 24.8605 7.12193 24.4239 7.37196" stroke="#676767" stroke-width="2"/>
<path d="M27.6252 1.08337L24.7085 3.16671" stroke="#676767" stroke-width="2" stroke-linecap="round"/>
</svg>
