<svg width="24" height="25" viewBox="0 0 24 25" fill="none" xmlns="http://www.w3.org/2000/svg">
<g clip-path="url(#clip0_219_4724)">
<path d="M5 9.32297C5.19056 8.30554 5.66826 7.37048 6.37193 6.63748C7.07561 5.90449 7.97326 5.40689 8.95 5.20839M1 9.32297C1.22544 7.20914 2.13417 5.23798 3.57701 3.73313C5.01984 2.22829 6.91101 1.27921 8.94 1.04172M16.92 2.08339H19.92C20.1985 2.08221 20.4742 2.14163 20.7293 2.25785C20.9845 2.37408 21.2136 2.54453 21.4019 2.7583C21.5901 2.97208 21.7335 3.22445 21.8227 3.49927C21.9119 3.77409 21.9451 4.06529 21.92 4.35422C21.5856 7.5596 20.5341 10.6386 18.85 13.3438C17.3147 15.8606 15.2662 17.9945 12.85 19.5938C10.2412 21.3542 7.27099 22.4498 4.18 22.7917C3.90347 22.8177 3.62476 22.7835 3.36162 22.6912C3.09849 22.5989 2.85669 22.4505 2.65162 22.2555C2.44655 22.0605 2.28271 21.8232 2.17052 21.5586C2.05833 21.294 2.00026 21.008 2 20.7188L2 17.5938C1.99522 17.0883 2.16708 16.5982 2.48353 16.2149C2.79999 15.8316 3.23945 15.5812 3.72 15.5105C4.68007 15.3786 5.62273 15.134 6.53 14.7813C6.88792 14.6412 7.27691 14.6108 7.65088 14.6939C8.02485 14.777 8.36811 14.97 8.64 15.2501L9.91 16.573C12.4135 15.0901 14.4864 12.9308 15.91 10.323L14.64 9.00005C14.3711 8.71683 14.1858 8.35927 14.1061 7.96972C14.0263 7.58017 14.0555 7.17497 14.19 6.80214C14.5285 5.85706 14.7634 4.87512 14.89 3.87505C14.9585 3.36905 15.2032 2.90693 15.5775 2.57658C15.9518 2.24624 16.4296 2.07071 16.92 2.08339Z" stroke="black" stroke-opacity="0.65" stroke-width="2" stroke-linecap="round" stroke-linejoin="round"/>
</g>
<defs>
<clipPath id="clip0_219_4724">
<rect width="25" height="24" fill="white" transform="matrix(0 -1 1 0 0 25)"/>
</clipPath>
</defs>
</svg>
