<svg width="42" height="42" viewBox="0 0 42 42" fill="none" xmlns="http://www.w3.org/2000/svg">
<g clip-path="url(#clip0_511_1049)">
<path d="M5.25 36.75H8.75M8.75 36.75H33.25M8.75 36.75V16.324M36.75 36.75H33.25M33.25 36.75V16.324M8.75 16.324C8.68457 16.2864 8.62037 16.2467 8.5575 16.205L7.6125 15.575C6.94445 15.1294 6.44994 14.4676 6.21192 13.7007C5.97391 12.9337 6.00686 12.1083 6.30525 11.3628L7.86975 7.44975C8.12961 6.80033 8.57808 6.24368 9.15733 5.85158C9.73658 5.45949 10.42 5.24995 11.1195 5.25H30.8805C31.58 5.24995 32.2634 5.45949 32.8427 5.85158C33.4219 6.24368 33.8704 6.80033 34.1303 7.44975L35.6947 11.3628C35.9931 12.1083 36.0261 12.9337 35.7881 13.7007C35.5501 14.4676 35.0556 15.1294 34.3875 15.575L33.4425 16.205C33.3796 16.2467 33.3154 16.2864 33.25 16.324M8.75 16.324C9.31533 16.6505 9.96072 16.8124 10.6132 16.7914C11.2657 16.7704 11.8994 16.5672 12.4425 16.205L15.75 14L19.0575 16.205C19.6327 16.5887 20.3086 16.7935 21 16.7935C21.6914 16.7935 22.3673 16.5887 22.9425 16.205L26.25 14L29.5575 16.205C30.1006 16.5672 30.7343 16.7704 31.3868 16.7914C32.0393 16.8124 32.6847 16.6505 33.25 16.324" stroke="black" stroke-width="2" stroke-linecap="round" stroke-linejoin="round"/>
<path d="M24.5 36.75V28C24.5 27.0717 24.1313 26.1815 23.4749 25.5251C22.8185 24.8687 21.9283 24.5 21 24.5C20.0717 24.5 19.1815 24.8687 18.5251 25.5251C17.8687 26.1815 17.5 27.0717 17.5 28V36.75" stroke="black" stroke-width="2"/>
</g>
<defs>
<clipPath id="clip0_511_1049">
<rect width="42" height="42" fill="white"/>
</clipPath>
</defs>
</svg>
